<svg id="Layer_1" data-name="Layer 1" xmlns="http://www.w3.org/2000/svg" viewBox="0 0 1366 768"><defs><style>.cls-1{fill:#004fff;}</style></defs><path d="M259.12,280.15c5.26,5.49,12.55,9.19,20.27,9.19,9.63,0,15.35-4.82,15.35-12,0-7.5-5.38-9.85-12.32-13l-10.53-4.59c-6.83-2.91-14.9-8.18-14.9-18.93,0-11.2,9.86-19.49,23.19-19.49a30,30,0,0,1,21.61,9.07l-4.93,6.05a23.63,23.63,0,0,0-16.68-6.94c-8.29,0-13.78,4.14-13.78,10.75,0,7.06,6.5,9.74,12.21,12.21L289.14,257c8.51,3.69,15.12,8.73,15.12,19.6,0,11.65-9.64,20.94-25.09,20.94a35.35,35.35,0,0,1-25.65-10.86Z"/><path d="M318,222.7h22.63c16.24,0,27.1,5.48,27.1,21.61,0,15.46-11.09,22.74-27.1,22.74H327.44v29.12H318Zm21.39,36.73c12.88,0,19-4.7,19-15.12,0-10.64-6.38-14.11-19-14.11h-12v29.23Z"/><path d="M377.73,259.1c0-23.52,13-37.75,31.47-37.75s31.36,14.34,31.36,37.75c0,23.63-13,38.41-31.36,38.41S377.73,282.73,377.73,259.1Zm53.2,0c0-18.26-8.63-29.57-21.73-29.57s-21.84,11.31-21.84,29.57,8.62,30.24,21.84,30.24S430.93,277.46,430.93,259.1Z"/><path d="M496.11,296.17l-17.69-31H465.2v31h-9.41V222.7h23.07c14.9,0,25.65,5.37,25.65,20.6,0,11.43-6.49,18.26-16.46,20.84l18.7,32ZM465.2,257.53h12.32c11.42,0,17.7-4.71,17.7-14.23s-6.28-13.1-17.7-13.1H465.2Z"/><path d="M533.41,230.54H511.12V222.7H565v7.84H542.7v65.63h-9.29Z"/><path class="cls-1" d="M616.32,313.46h-9.75v19.71h-8.73V313.46H565.69v-6l30.58-45.7h10.3v44.35h9.75Zm-18.48-7.4V285.34c0-3.8.33-10,.56-13.77H598c-1.79,3.47-3.81,6.61-5.82,10.08l-16.69,24.41Z"/><path d="M645.18,267.72,623,222.7h10.08l9.4,20.72c2.36,5.37,4.6,10.52,7.17,16h.45c2.46-5.49,5-10.64,7.28-16l9.52-20.72h9.63l-22.06,45v28.45h-9.3Z"/><path d="M680.13,259.1c0-23.52,13-37.75,31.47-37.75S743,235.69,743,259.1c0,23.63-13,38.41-31.36,38.41S680.13,282.73,680.13,259.1Zm53.2,0c0-18.26-8.63-29.57-21.73-29.57s-21.84,11.31-21.84,29.57,8.62,30.24,21.84,30.24S733.33,277.46,733.33,259.1Z"/><path d="M757.85,222.7h9.41V266c0,17.7,7.51,23.3,17,23.3,9.74,0,17.47-5.6,17.47-23.3V222.7h9v43.12c0,23.63-11.43,31.69-26.43,31.69s-26.44-8.06-26.44-31.69Z"/></svg>